<mxfile host="app.diagrams.net" modified="2024-12-29T04:03:37.170Z" agent="Mozilla/5.0 (Macintosh; Intel Mac OS X 10_15_7) AppleWebKit/537.36 (KHTML, like Gecko) Chrome/128.0.0.0 Safari/537.36" etag="hvMEnyFipZNbNy85kPo0" version="24.0.7" type="github">
  <diagram name="第 1 页" id="Hzq1gPXP81v7amF3jc7R">
    <mxGraphModel dx="1150" dy="1814" grid="1" gridSize="10" guides="1" tooltips="1" connect="1" arrows="1" fold="1" page="1" pageScale="1" pageWidth="827" pageHeight="1169" math="0" shadow="0">
      <root>
        <mxCell id="0" />
        <mxCell id="1" parent="0" />
        <mxCell id="E9tjk1P1PD2Z4J70Hqr4-1" value="zlbytes（32bit）&lt;div&gt;列表总字节数&lt;/div&gt;" style="rounded=0;whiteSpace=wrap;html=1;fillColor=#d5e8d4;strokeColor=#82b366;" vertex="1" parent="1">
          <mxGeometry x="100" y="-500" width="120" height="40" as="geometry" />
        </mxCell>
        <mxCell id="E9tjk1P1PD2Z4J70Hqr4-3" value="zltail（32bit）&lt;div&gt;最后一项偏移量&lt;/div&gt;" style="rounded=0;whiteSpace=wrap;html=1;fillColor=#f5f5f5;fontColor=#333333;strokeColor=#666666;" vertex="1" parent="1">
          <mxGeometry x="220" y="-500" width="120" height="40" as="geometry" />
        </mxCell>
        <mxCell id="E9tjk1P1PD2Z4J70Hqr4-4" value="zllen（16bit）&lt;div&gt;列表节点个数&lt;/div&gt;" style="rounded=0;whiteSpace=wrap;html=1;fillColor=#dae8fc;strokeColor=#6c8ebf;" vertex="1" parent="1">
          <mxGeometry x="340" y="-500" width="120" height="40" as="geometry" />
        </mxCell>
        <mxCell id="E9tjk1P1PD2Z4J70Hqr4-5" value="entry 1" style="rounded=0;whiteSpace=wrap;html=1;" vertex="1" parent="1">
          <mxGeometry x="460" y="-500" width="80" height="40" as="geometry" />
        </mxCell>
        <mxCell id="E9tjk1P1PD2Z4J70Hqr4-6" value="entry ……" style="rounded=0;whiteSpace=wrap;html=1;" vertex="1" parent="1">
          <mxGeometry x="540" y="-500" width="80" height="40" as="geometry" />
        </mxCell>
        <mxCell id="E9tjk1P1PD2Z4J70Hqr4-7" value="entry N" style="rounded=0;whiteSpace=wrap;html=1;" vertex="1" parent="1">
          <mxGeometry x="620" y="-500" width="80" height="40" as="geometry" />
        </mxCell>
        <mxCell id="E9tjk1P1PD2Z4J70Hqr4-8" value="zlend（8bit）&lt;div&gt;列表结束标记&lt;/div&gt;" style="rounded=0;whiteSpace=wrap;html=1;fillColor=#d5e8d4;strokeColor=#82b366;" vertex="1" parent="1">
          <mxGeometry x="700" y="-500" width="90" height="40" as="geometry" />
        </mxCell>
        <mxCell id="E9tjk1P1PD2Z4J70Hqr4-9" value="prevrawlen（变长,1/5字节）&lt;div&gt;前一项总字节数&lt;/div&gt;" style="rounded=0;whiteSpace=wrap;html=1;fillColor=#ffcc99;strokeColor=#36393d;" vertex="1" parent="1">
          <mxGeometry x="310" y="-320" width="150" height="40" as="geometry" />
        </mxCell>
        <mxCell id="E9tjk1P1PD2Z4J70Hqr4-12" value="len（变长,1/2/5字节）&lt;div&gt;当前数据项的data数据长度&lt;/div&gt;" style="rounded=0;whiteSpace=wrap;html=1;fillColor=#cdeb8b;strokeColor=#36393d;" vertex="1" parent="1">
          <mxGeometry x="460" y="-320" width="150" height="40" as="geometry" />
        </mxCell>
        <mxCell id="E9tjk1P1PD2Z4J70Hqr4-13" value="data&lt;div&gt;真正的数据&lt;/div&gt;" style="rounded=0;whiteSpace=wrap;html=1;fillColor=#ffcccc;strokeColor=#36393d;" vertex="1" parent="1">
          <mxGeometry x="610" y="-320" width="80" height="40" as="geometry" />
        </mxCell>
        <mxCell id="E9tjk1P1PD2Z4J70Hqr4-14" value="" style="endArrow=classic;html=1;rounded=0;exitX=0;exitY=1;exitDx=0;exitDy=0;entryX=0;entryY=0;entryDx=0;entryDy=0;" edge="1" parent="1" source="E9tjk1P1PD2Z4J70Hqr4-5" target="E9tjk1P1PD2Z4J70Hqr4-9">
          <mxGeometry width="50" height="50" relative="1" as="geometry">
            <mxPoint x="240" y="-250" as="sourcePoint" />
            <mxPoint x="290" y="-300" as="targetPoint" />
          </mxGeometry>
        </mxCell>
        <mxCell id="E9tjk1P1PD2Z4J70Hqr4-15" value="" style="endArrow=classic;html=1;rounded=0;exitX=0;exitY=1;exitDx=0;exitDy=0;entryX=1;entryY=0;entryDx=0;entryDy=0;" edge="1" parent="1" source="E9tjk1P1PD2Z4J70Hqr4-6" target="E9tjk1P1PD2Z4J70Hqr4-13">
          <mxGeometry width="50" height="50" relative="1" as="geometry">
            <mxPoint x="510" y="-390" as="sourcePoint" />
            <mxPoint x="750" y="-330" as="targetPoint" />
          </mxGeometry>
        </mxCell>
        <mxCell id="E9tjk1P1PD2Z4J70Hqr4-16" value="" style="shape=curlyBracket;whiteSpace=wrap;html=1;rounded=1;labelPosition=left;verticalLabelPosition=middle;align=right;verticalAlign=middle;rotation=90;" vertex="1" parent="1">
          <mxGeometry x="270" y="-700" width="20" height="330" as="geometry" />
        </mxCell>
        <mxCell id="E9tjk1P1PD2Z4J70Hqr4-17" value="" style="shape=curlyBracket;whiteSpace=wrap;html=1;rounded=1;labelPosition=left;verticalLabelPosition=middle;align=right;verticalAlign=middle;rotation=90;" vertex="1" parent="1">
          <mxGeometry x="570" y="-640" width="20" height="210" as="geometry" />
        </mxCell>
        <mxCell id="E9tjk1P1PD2Z4J70Hqr4-18" value="" style="shape=curlyBracket;whiteSpace=wrap;html=1;rounded=1;labelPosition=left;verticalLabelPosition=middle;align=right;verticalAlign=middle;rotation=90;" vertex="1" parent="1">
          <mxGeometry x="735" y="-565" width="20" height="60" as="geometry" />
        </mxCell>
        <mxCell id="E9tjk1P1PD2Z4J70Hqr4-19" value="header 10字节" style="text;html=1;align=center;verticalAlign=middle;whiteSpace=wrap;rounded=0;" vertex="1" parent="1">
          <mxGeometry x="235" y="-584" width="90" height="30" as="geometry" />
        </mxCell>
        <mxCell id="E9tjk1P1PD2Z4J70Hqr4-20" value="entries" style="text;html=1;align=center;verticalAlign=middle;whiteSpace=wrap;rounded=0;" vertex="1" parent="1">
          <mxGeometry x="535" y="-584" width="90" height="30" as="geometry" />
        </mxCell>
        <mxCell id="E9tjk1P1PD2Z4J70Hqr4-21" value="end 1字节" style="text;html=1;align=center;verticalAlign=middle;whiteSpace=wrap;rounded=0;" vertex="1" parent="1">
          <mxGeometry x="700" y="-584" width="90" height="30" as="geometry" />
        </mxCell>
        <mxCell id="E9tjk1P1PD2Z4J70Hqr4-22" value="&lt;span data-pm-slice=&quot;1 1 [&amp;quot;codeblock&amp;quot;,{&amp;quot;data-lang&amp;quot;:&amp;quot;cs&amp;quot;},&amp;quot;code&amp;quot;,{}]&quot;&gt;totalBytes&lt;/span&gt;（32bit）&lt;div&gt;列表总字节数&lt;/div&gt;" style="rounded=0;whiteSpace=wrap;html=1;fillColor=#d5e8d4;strokeColor=#82b366;" vertex="1" parent="1">
          <mxGeometry x="220" y="-80" width="120" height="40" as="geometry" />
        </mxCell>
        <mxCell id="E9tjk1P1PD2Z4J70Hqr4-24" value="&lt;span style=&quot;color: rgb(51, 51, 51);&quot;&gt;elementNum（16bit）&lt;/span&gt;&lt;div style=&quot;color: rgb(51, 51, 51);&quot;&gt;&lt;span style=&quot;color: rgb(0, 0, 0);&quot;&gt;列表节点个数&lt;/span&gt;&lt;/div&gt;" style="rounded=0;whiteSpace=wrap;html=1;fillColor=#dae8fc;strokeColor=#6c8ebf;" vertex="1" parent="1">
          <mxGeometry x="340" y="-80" width="120" height="40" as="geometry" />
        </mxCell>
        <mxCell id="E9tjk1P1PD2Z4J70Hqr4-25" value="entry 1" style="rounded=0;whiteSpace=wrap;html=1;" vertex="1" parent="1">
          <mxGeometry x="460" y="-80" width="80" height="40" as="geometry" />
        </mxCell>
        <mxCell id="E9tjk1P1PD2Z4J70Hqr4-26" value="entry ……" style="rounded=0;whiteSpace=wrap;html=1;" vertex="1" parent="1">
          <mxGeometry x="540" y="-80" width="80" height="40" as="geometry" />
        </mxCell>
        <mxCell id="E9tjk1P1PD2Z4J70Hqr4-27" value="entry N" style="rounded=0;whiteSpace=wrap;html=1;" vertex="1" parent="1">
          <mxGeometry x="620" y="-80" width="80" height="40" as="geometry" />
        </mxCell>
        <mxCell id="E9tjk1P1PD2Z4J70Hqr4-28" value="zlend（8bit）&lt;div&gt;列表结束标记&lt;/div&gt;" style="rounded=0;whiteSpace=wrap;html=1;fillColor=#d5e8d4;strokeColor=#82b366;" vertex="1" parent="1">
          <mxGeometry x="700" y="-80" width="90" height="40" as="geometry" />
        </mxCell>
        <mxCell id="E9tjk1P1PD2Z4J70Hqr4-29" value="encoding（变长）&lt;div&gt;data的具体类型&lt;/div&gt;" style="rounded=0;whiteSpace=wrap;html=1;fillColor=#ffcc99;strokeColor=#36393d;" vertex="1" parent="1">
          <mxGeometry x="310" y="100" width="150" height="40" as="geometry" />
        </mxCell>
        <mxCell id="E9tjk1P1PD2Z4J70Hqr4-32" value="" style="endArrow=classic;html=1;rounded=0;exitX=0;exitY=1;exitDx=0;exitDy=0;entryX=0;entryY=0;entryDx=0;entryDy=0;" edge="1" parent="1" source="E9tjk1P1PD2Z4J70Hqr4-25" target="E9tjk1P1PD2Z4J70Hqr4-29">
          <mxGeometry width="50" height="50" relative="1" as="geometry">
            <mxPoint x="240" y="170" as="sourcePoint" />
            <mxPoint x="290" y="120" as="targetPoint" />
          </mxGeometry>
        </mxCell>
        <mxCell id="E9tjk1P1PD2Z4J70Hqr4-33" value="" style="endArrow=classic;html=1;rounded=0;exitX=0;exitY=1;exitDx=0;exitDy=0;entryX=1;entryY=0;entryDx=0;entryDy=0;" edge="1" parent="1" source="E9tjk1P1PD2Z4J70Hqr4-26" target="E9tjk1P1PD2Z4J70Hqr4-40">
          <mxGeometry width="50" height="50" relative="1" as="geometry">
            <mxPoint x="510" y="30" as="sourcePoint" />
            <mxPoint x="690" y="100" as="targetPoint" />
          </mxGeometry>
        </mxCell>
        <mxCell id="E9tjk1P1PD2Z4J70Hqr4-34" value="" style="shape=curlyBracket;whiteSpace=wrap;html=1;rounded=1;labelPosition=left;verticalLabelPosition=middle;align=right;verticalAlign=middle;rotation=90;" vertex="1" parent="1">
          <mxGeometry x="330" y="-220" width="20" height="210" as="geometry" />
        </mxCell>
        <mxCell id="E9tjk1P1PD2Z4J70Hqr4-35" value="" style="shape=curlyBracket;whiteSpace=wrap;html=1;rounded=1;labelPosition=left;verticalLabelPosition=middle;align=right;verticalAlign=middle;rotation=90;" vertex="1" parent="1">
          <mxGeometry x="570" y="-220" width="20" height="210" as="geometry" />
        </mxCell>
        <mxCell id="E9tjk1P1PD2Z4J70Hqr4-36" value="" style="shape=curlyBracket;whiteSpace=wrap;html=1;rounded=1;labelPosition=left;verticalLabelPosition=middle;align=right;verticalAlign=middle;rotation=90;" vertex="1" parent="1">
          <mxGeometry x="735" y="-145" width="20" height="60" as="geometry" />
        </mxCell>
        <mxCell id="E9tjk1P1PD2Z4J70Hqr4-37" value="header 6字节" style="text;html=1;align=center;verticalAlign=middle;whiteSpace=wrap;rounded=0;" vertex="1" parent="1">
          <mxGeometry x="295" y="-164" width="90" height="30" as="geometry" />
        </mxCell>
        <mxCell id="E9tjk1P1PD2Z4J70Hqr4-38" value="entries" style="text;html=1;align=center;verticalAlign=middle;whiteSpace=wrap;rounded=0;" vertex="1" parent="1">
          <mxGeometry x="535" y="-164" width="90" height="30" as="geometry" />
        </mxCell>
        <mxCell id="E9tjk1P1PD2Z4J70Hqr4-39" value="end 1字节" style="text;html=1;align=center;verticalAlign=middle;whiteSpace=wrap;rounded=0;" vertex="1" parent="1">
          <mxGeometry x="700" y="-164" width="90" height="30" as="geometry" />
        </mxCell>
        <mxCell id="E9tjk1P1PD2Z4J70Hqr4-40" value="element-len（变长）&lt;div&gt;当前数据项entry的总长度&lt;/div&gt;" style="rounded=0;whiteSpace=wrap;html=1;fillColor=#cdeb8b;strokeColor=#36393d;" vertex="1" parent="1">
          <mxGeometry x="535" y="100" width="150" height="40" as="geometry" />
        </mxCell>
        <mxCell id="E9tjk1P1PD2Z4J70Hqr4-41" value="data&lt;div&gt;真正的数据&lt;/div&gt;" style="rounded=0;whiteSpace=wrap;html=1;fillColor=#ffcccc;strokeColor=#36393d;" vertex="1" parent="1">
          <mxGeometry x="455" y="100" width="80" height="40" as="geometry" />
        </mxCell>
      </root>
    </mxGraphModel>
  </diagram>
</mxfile>
